<mxfile host="app.diagrams.net" modified="2020-07-18T00:07:40.143Z" agent="5.0 (X11)" etag="keF_t5DkfwXF4m7XUJJv" version="13.4.6" type="github">
  <diagram id="JviSozrBulg9Kmm3xye5" name="Common">
    <mxGraphModel dx="4780" dy="1083" grid="1" gridSize="10" guides="1" tooltips="1" connect="1" arrows="1" fold="1" page="1" pageScale="1" pageWidth="690" pageHeight="980" math="0" shadow="0">
      <root>
        <mxCell id="0" />
        <mxCell id="1" parent="0" />
        <mxCell id="7miGtdqhwEmE9htYBtyr-1" value="ristogo.common.net" style="shape=folder;fontStyle=1;spacingTop=10;tabWidth=151;tabHeight=20;tabPosition=left;html=1;verticalAlign=bottom;labelPosition=left;verticalLabelPosition=top;align=right;spacing=-18;spacingLeft=0;spacingRight=-126;" vertex="1" parent="1">
          <mxGeometry x="-2481" width="1991" height="950" as="geometry" />
        </mxCell>
        <mxCell id="7miGtdqhwEmE9htYBtyr-2" value="&lt;div&gt;ristogo.common.net.enums&lt;/div&gt;" style="shape=folder;fontStyle=1;spacingTop=10;tabWidth=211;tabHeight=28;tabPosition=left;html=1;verticalAlign=bottom;labelPosition=left;verticalLabelPosition=top;align=right;spacing=-18;spacingLeft=0;spacingRight=-177;fillColor=#fff2cc;strokeColor=#d6b656;" vertex="1" parent="1">
          <mxGeometry x="-2411" y="262.5" width="370" height="167.5" as="geometry" />
        </mxCell>
        <mxCell id="7miGtdqhwEmE9htYBtyr-3" value="ristogo.common.net.entities" style="shape=folder;fontStyle=1;spacingTop=10;tabWidth=201;tabHeight=20;tabPosition=left;html=1;verticalAlign=bottom;labelPosition=left;verticalLabelPosition=top;align=right;spacing=-18;spacingLeft=0;spacingRight=-180;fillColor=#d5e8d4;strokeColor=#82b366;" vertex="1" parent="1">
          <mxGeometry x="-1701" y="190" width="1201" height="520" as="geometry" />
        </mxCell>
        <mxCell id="7miGtdqhwEmE9htYBtyr-4" value="ristogo.common.net.entities.enums" style="shape=folder;fontStyle=1;spacingTop=10;tabWidth=260;tabHeight=20;tabPosition=left;html=1;verticalAlign=bottom;labelPosition=left;verticalLabelPosition=top;align=right;spacing=-18;spacingLeft=0;spacingRight=-233;fillColor=#fff2cc;strokeColor=#d6b656;" vertex="1" parent="1">
          <mxGeometry x="-1240" y="500" width="680" height="180" as="geometry" />
        </mxCell>
        <mxCell id="7miGtdqhwEmE9htYBtyr-5" value="&amp;lt;&amp;lt;use&amp;gt;&amp;gt;" style="edgeStyle=none;rounded=0;orthogonalLoop=1;jettySize=auto;html=1;dashed=1;labelBackgroundColor=none;endArrow=classic;endFill=1;" edge="1" parent="1" source="7miGtdqhwEmE9htYBtyr-72" target="7miGtdqhwEmE9htYBtyr-85">
          <mxGeometry relative="1" as="geometry" />
        </mxCell>
        <mxCell id="7miGtdqhwEmE9htYBtyr-6" style="edgeStyle=none;rounded=0;orthogonalLoop=1;jettySize=auto;html=1;labelBackgroundColor=none;endArrow=block;endFill=0;" edge="1" parent="1" source="7miGtdqhwEmE9htYBtyr-72" target="7miGtdqhwEmE9htYBtyr-38">
          <mxGeometry relative="1" as="geometry" />
        </mxCell>
        <mxCell id="7miGtdqhwEmE9htYBtyr-7" value="&amp;lt;&amp;lt;use&amp;gt;&amp;gt;" style="edgeStyle=none;rounded=0;orthogonalLoop=1;jettySize=auto;html=1;dashed=1;labelBackgroundColor=none;endArrow=classic;endFill=1;" edge="1" parent="1" source="7miGtdqhwEmE9htYBtyr-55" target="7miGtdqhwEmE9htYBtyr-85">
          <mxGeometry relative="1" as="geometry" />
        </mxCell>
        <mxCell id="7miGtdqhwEmE9htYBtyr-8" value="Entity" style="html=1;fillColor=none;fontStyle=3" vertex="1" parent="1">
          <mxGeometry x="-1071" y="240" width="110" height="50" as="geometry" />
        </mxCell>
        <mxCell id="7miGtdqhwEmE9htYBtyr-11" style="edgeStyle=orthogonalEdgeStyle;rounded=0;orthogonalLoop=1;jettySize=auto;html=1;labelBackgroundColor=none;endArrow=block;endFill=0;" edge="1" parent="1" source="7miGtdqhwEmE9htYBtyr-12" target="7miGtdqhwEmE9htYBtyr-8">
          <mxGeometry relative="1" as="geometry">
            <Array as="points">
              <mxPoint x="-1225" y="350" />
              <mxPoint x="-1016" y="350" />
            </Array>
          </mxGeometry>
        </mxCell>
        <mxCell id="7miGtdqhwEmE9htYBtyr-12" value="CuisineInfo" style="html=1;fillColor=none;fontStyle=1" vertex="1" parent="1">
          <mxGeometry x="-1290" y="390" width="130" height="50" as="geometry" />
        </mxCell>
        <mxCell id="7miGtdqhwEmE9htYBtyr-13" style="edgeStyle=orthogonalEdgeStyle;rounded=0;orthogonalLoop=1;jettySize=auto;html=1;labelBackgroundColor=none;endArrow=block;endFill=0;" edge="1" parent="1" source="7miGtdqhwEmE9htYBtyr-14" target="7miGtdqhwEmE9htYBtyr-8">
          <mxGeometry relative="1" as="geometry">
            <Array as="points">
              <mxPoint x="-1090" y="350" />
              <mxPoint x="-1016" y="350" />
            </Array>
          </mxGeometry>
        </mxCell>
        <mxCell id="7miGtdqhwEmE9htYBtyr-14" value="StatisticInfo" style="html=1;fillColor=none;fontStyle=1" vertex="1" parent="1">
          <mxGeometry x="-1150" y="390" width="120" height="50" as="geometry" />
        </mxCell>
        <mxCell id="7miGtdqhwEmE9htYBtyr-17" style="edgeStyle=orthogonalEdgeStyle;rounded=0;orthogonalLoop=1;jettySize=auto;html=1;labelBackgroundColor=none;endArrow=block;endFill=0;" edge="1" parent="1" source="7miGtdqhwEmE9htYBtyr-18" target="7miGtdqhwEmE9htYBtyr-8">
          <mxGeometry relative="1" as="geometry">
            <Array as="points">
              <mxPoint x="-1360" y="350" />
              <mxPoint x="-1016" y="350" />
            </Array>
          </mxGeometry>
        </mxCell>
        <mxCell id="7miGtdqhwEmE9htYBtyr-18" value="CityInfo" style="html=1;fillColor=none;fontStyle=1" vertex="1" parent="1">
          <mxGeometry x="-1420" y="390" width="120" height="50" as="geometry" />
        </mxCell>
        <mxCell id="7miGtdqhwEmE9htYBtyr-19" style="edgeStyle=orthogonalEdgeStyle;rounded=0;orthogonalLoop=1;jettySize=auto;html=1;labelBackgroundColor=none;endArrow=block;endFill=0;" edge="1" parent="1" source="7miGtdqhwEmE9htYBtyr-20" target="7miGtdqhwEmE9htYBtyr-8">
          <mxGeometry relative="1" as="geometry">
            <Array as="points">
              <mxPoint x="-1490" y="350" />
              <mxPoint x="-1016" y="350" />
            </Array>
          </mxGeometry>
        </mxCell>
        <mxCell id="7miGtdqhwEmE9htYBtyr-98" value="&amp;lt;&amp;lt;use&amp;gt;&amp;gt;" style="rounded=0;orthogonalLoop=1;jettySize=auto;html=1;dashed=1;labelBackgroundColor=none;endArrow=block;endFill=0;" edge="1" parent="1" source="7miGtdqhwEmE9htYBtyr-20" target="7miGtdqhwEmE9htYBtyr-88">
          <mxGeometry relative="1" as="geometry" />
        </mxCell>
        <mxCell id="7miGtdqhwEmE9htYBtyr-20" value="RestaurantInfo" style="html=1;fillColor=none;fontStyle=1" vertex="1" parent="1">
          <mxGeometry x="-1550" y="390" width="120" height="50" as="geometry" />
        </mxCell>
        <mxCell id="7miGtdqhwEmE9htYBtyr-21" value="&amp;lt;&amp;lt;use&amp;gt;&amp;gt;" style="edgeStyle=none;rounded=0;orthogonalLoop=1;jettySize=auto;html=1;dashed=1;labelBackgroundColor=none;endArrow=classic;endFill=1;" edge="1" parent="1" source="7miGtdqhwEmE9htYBtyr-92" target="7miGtdqhwEmE9htYBtyr-88">
          <mxGeometry relative="1" as="geometry" />
        </mxCell>
        <mxCell id="7miGtdqhwEmE9htYBtyr-22" style="edgeStyle=orthogonalEdgeStyle;rounded=0;orthogonalLoop=1;jettySize=auto;html=1;labelBackgroundColor=none;endArrow=block;endFill=0;" edge="1" parent="1" source="7miGtdqhwEmE9htYBtyr-23" target="7miGtdqhwEmE9htYBtyr-8">
          <mxGeometry relative="1" as="geometry">
            <Array as="points">
              <mxPoint x="-700" y="350" />
              <mxPoint x="-1016" y="350" />
            </Array>
          </mxGeometry>
        </mxCell>
        <mxCell id="7miGtdqhwEmE9htYBtyr-23" value="PageFilter" style="html=1;fillColor=none;fontStyle=1" vertex="1" parent="1">
          <mxGeometry x="-760" y="390" width="120" height="50" as="geometry" />
        </mxCell>
        <mxCell id="7miGtdqhwEmE9htYBtyr-26" style="edgeStyle=orthogonalEdgeStyle;rounded=0;orthogonalLoop=1;jettySize=auto;html=1;labelBackgroundColor=none;endArrow=block;endFill=0;" edge="1" parent="1" source="7miGtdqhwEmE9htYBtyr-27" target="7miGtdqhwEmE9htYBtyr-8">
          <mxGeometry relative="1" as="geometry">
            <Array as="points">
              <mxPoint x="-570" y="350" />
              <mxPoint x="-1016" y="350" />
            </Array>
          </mxGeometry>
        </mxCell>
        <mxCell id="7miGtdqhwEmE9htYBtyr-27" value="StringFilter" style="html=1;fillColor=none;fontStyle=1" vertex="1" parent="1">
          <mxGeometry x="-630" y="390" width="120" height="50" as="geometry" />
        </mxCell>
        <mxCell id="7miGtdqhwEmE9htYBtyr-32" style="edgeStyle=orthogonalEdgeStyle;rounded=0;orthogonalLoop=1;jettySize=auto;html=1;labelBackgroundColor=none;endArrow=block;endFill=0;" edge="1" parent="1" source="7miGtdqhwEmE9htYBtyr-33" target="7miGtdqhwEmE9htYBtyr-8">
          <mxGeometry relative="1" as="geometry">
            <Array as="points">
              <mxPoint x="-1621" y="350" />
              <mxPoint x="-1016" y="350" />
            </Array>
          </mxGeometry>
        </mxCell>
        <mxCell id="7miGtdqhwEmE9htYBtyr-33" value="UserInfo" style="html=1;fillColor=none;fontStyle=1" vertex="1" parent="1">
          <mxGeometry x="-1681" y="390" width="120" height="50" as="geometry" />
        </mxCell>
        <mxCell id="7miGtdqhwEmE9htYBtyr-37" style="edgeStyle=none;rounded=0;orthogonalLoop=1;jettySize=auto;html=1;labelBackgroundColor=none;endArrow=block;endFill=0;" edge="1" parent="1" source="7miGtdqhwEmE9htYBtyr-55" target="7miGtdqhwEmE9htYBtyr-38">
          <mxGeometry relative="1" as="geometry" />
        </mxCell>
        <mxCell id="7miGtdqhwEmE9htYBtyr-95" value="&amp;lt;&amp;lt;use&amp;gt;&amp;gt;" style="edgeStyle=orthogonalEdgeStyle;rounded=0;orthogonalLoop=1;jettySize=auto;html=1;endArrow=block;endFill=0;dashed=1;labelBackgroundColor=none;" edge="1" parent="1" source="7miGtdqhwEmE9htYBtyr-38" target="7miGtdqhwEmE9htYBtyr-8">
          <mxGeometry relative="1" as="geometry">
            <Array as="points">
              <mxPoint x="-1590" y="265" />
              <mxPoint x="-1590" y="265" />
            </Array>
          </mxGeometry>
        </mxCell>
        <mxCell id="7miGtdqhwEmE9htYBtyr-38" value="Message" style="swimlane;fontStyle=3;align=center;verticalAlign=top;childLayout=stackLayout;horizontal=1;startSize=26;horizontalStack=0;resizeParent=1;resizeParentMax=0;resizeLast=0;collapsible=1;marginBottom=0;fillColor=none;" vertex="1" parent="1">
          <mxGeometry x="-2001" y="110" width="244" height="424" as="geometry" />
        </mxCell>
        <mxCell id="7miGtdqhwEmE9htYBtyr-39" value="# entities: List&lt;Entity&gt;" style="text;strokeColor=none;fillColor=none;align=left;verticalAlign=top;spacingLeft=4;spacingRight=4;overflow=hidden;rotatable=0;points=[[0,0.5],[1,0.5]];portConstraint=eastwest;" vertex="1" parent="7miGtdqhwEmE9htYBtyr-38">
          <mxGeometry y="26" width="244" height="26" as="geometry" />
        </mxCell>
        <mxCell id="7miGtdqhwEmE9htYBtyr-40" value="" style="line;strokeWidth=1;fillColor=none;align=left;verticalAlign=middle;spacingTop=-1;spacingLeft=3;spacingRight=3;rotatable=0;labelPosition=right;points=[];portConstraint=eastwest;" vertex="1" parent="7miGtdqhwEmE9htYBtyr-38">
          <mxGeometry y="52" width="244" height="8" as="geometry" />
        </mxCell>
        <mxCell id="7miGtdqhwEmE9htYBtyr-41" value="# Message(List&lt;Entity&gt;)" style="text;strokeColor=none;fillColor=none;align=left;verticalAlign=top;spacingLeft=4;spacingRight=4;overflow=hidden;rotatable=0;points=[[0,0.5],[1,0.5]];portConstraint=eastwest;" vertex="1" parent="7miGtdqhwEmE9htYBtyr-38">
          <mxGeometry y="60" width="244" height="26" as="geometry" />
        </mxCell>
        <mxCell id="7miGtdqhwEmE9htYBtyr-42" value="# Message(Entity...)" style="text;strokeColor=none;fillColor=none;align=left;verticalAlign=top;spacingLeft=4;spacingRight=4;overflow=hidden;rotatable=0;points=[[0,0.5],[1,0.5]];portConstraint=eastwest;" vertex="1" parent="7miGtdqhwEmE9htYBtyr-38">
          <mxGeometry y="86" width="244" height="26" as="geometry" />
        </mxCell>
        <mxCell id="7miGtdqhwEmE9htYBtyr-43" value="# toXML(): String" style="text;strokeColor=none;fillColor=none;align=left;verticalAlign=top;spacingLeft=4;spacingRight=4;overflow=hidden;rotatable=0;points=[[0,0.5],[1,0.5]];portConstraint=eastwest;" vertex="1" parent="7miGtdqhwEmE9htYBtyr-38">
          <mxGeometry y="112" width="244" height="26" as="geometry" />
        </mxCell>
        <mxCell id="7miGtdqhwEmE9htYBtyr-44" value="# fromXML(String): Message" style="text;strokeColor=none;fillColor=none;align=left;verticalAlign=top;spacingLeft=4;spacingRight=4;overflow=hidden;rotatable=0;points=[[0,0.5],[1,0.5]];portConstraint=eastwest;fontStyle=4" vertex="1" parent="7miGtdqhwEmE9htYBtyr-38">
          <mxGeometry y="138" width="244" height="26" as="geometry" />
        </mxCell>
        <mxCell id="7miGtdqhwEmE9htYBtyr-45" value="+ send(DataOutputStream): void" style="text;strokeColor=none;fillColor=none;align=left;verticalAlign=top;spacingLeft=4;spacingRight=4;overflow=hidden;rotatable=0;points=[[0,0.5],[1,0.5]];portConstraint=eastwest;" vertex="1" parent="7miGtdqhwEmE9htYBtyr-38">
          <mxGeometry y="164" width="244" height="26" as="geometry" />
        </mxCell>
        <mxCell id="7miGtdqhwEmE9htYBtyr-46" value="+ receive(DataInputStream): Message" style="text;strokeColor=none;fillColor=none;align=left;verticalAlign=top;spacingLeft=4;spacingRight=4;overflow=hidden;rotatable=0;points=[[0,0.5],[1,0.5]];portConstraint=eastwest;fontStyle=4" vertex="1" parent="7miGtdqhwEmE9htYBtyr-38">
          <mxGeometry y="190" width="244" height="26" as="geometry" />
        </mxCell>
        <mxCell id="7miGtdqhwEmE9htYBtyr-47" value="+ getEntity(): Entity" style="text;strokeColor=none;fillColor=none;align=left;verticalAlign=top;spacingLeft=4;spacingRight=4;overflow=hidden;rotatable=0;points=[[0,0.5],[1,0.5]];portConstraint=eastwest;" vertex="1" parent="7miGtdqhwEmE9htYBtyr-38">
          <mxGeometry y="216" width="244" height="26" as="geometry" />
        </mxCell>
        <mxCell id="7miGtdqhwEmE9htYBtyr-48" value="+ getEntity(int): Entity" style="text;strokeColor=none;fillColor=none;align=left;verticalAlign=top;spacingLeft=4;spacingRight=4;overflow=hidden;rotatable=0;points=[[0,0.5],[1,0.5]];portConstraint=eastwest;" vertex="1" parent="7miGtdqhwEmE9htYBtyr-38">
          <mxGeometry y="242" width="244" height="26" as="geometry" />
        </mxCell>
        <mxCell id="7miGtdqhwEmE9htYBtyr-49" value="+ getEntity(Class&lt;E&gt;): E" style="text;strokeColor=none;fillColor=none;align=left;verticalAlign=top;spacingLeft=4;spacingRight=4;overflow=hidden;rotatable=0;points=[[0,0.5],[1,0.5]];portConstraint=eastwest;" vertex="1" parent="7miGtdqhwEmE9htYBtyr-38">
          <mxGeometry y="268" width="244" height="26" as="geometry" />
        </mxCell>
        <mxCell id="7miGtdqhwEmE9htYBtyr-50" value="+ getEntities(): List&lt;Entity&gt;" style="text;strokeColor=none;fillColor=none;align=left;verticalAlign=top;spacingLeft=4;spacingRight=4;overflow=hidden;rotatable=0;points=[[0,0.5],[1,0.5]];portConstraint=eastwest;" vertex="1" parent="7miGtdqhwEmE9htYBtyr-38">
          <mxGeometry y="294" width="244" height="26" as="geometry" />
        </mxCell>
        <mxCell id="7miGtdqhwEmE9htYBtyr-51" value="+ getEntities(Class&lt;E&gt;): List&lt;E&gt;" style="text;strokeColor=none;fillColor=none;align=left;verticalAlign=top;spacingLeft=4;spacingRight=4;overflow=hidden;rotatable=0;points=[[0,0.5],[1,0.5]];portConstraint=eastwest;" vertex="1" parent="7miGtdqhwEmE9htYBtyr-38">
          <mxGeometry y="320" width="244" height="26" as="geometry" />
        </mxCell>
        <mxCell id="7miGtdqhwEmE9htYBtyr-52" value="+ hasEntity(Class&lt;?&gt;): boolean" style="text;strokeColor=none;fillColor=none;align=left;verticalAlign=top;spacingLeft=4;spacingRight=4;overflow=hidden;rotatable=0;points=[[0,0.5],[1,0.5]];portConstraint=eastwest;" vertex="1" parent="7miGtdqhwEmE9htYBtyr-38">
          <mxGeometry y="346" width="244" height="26" as="geometry" />
        </mxCell>
        <mxCell id="7miGtdqhwEmE9htYBtyr-53" value="+ addEntity(Entity): void" style="text;strokeColor=none;fillColor=none;align=left;verticalAlign=top;spacingLeft=4;spacingRight=4;overflow=hidden;rotatable=0;points=[[0,0.5],[1,0.5]];portConstraint=eastwest;" vertex="1" parent="7miGtdqhwEmE9htYBtyr-38">
          <mxGeometry y="372" width="244" height="26" as="geometry" />
        </mxCell>
        <mxCell id="7miGtdqhwEmE9htYBtyr-54" value="+ getEntityCount(): int" style="text;strokeColor=none;fillColor=none;align=left;verticalAlign=top;spacingLeft=4;spacingRight=4;overflow=hidden;rotatable=0;points=[[0,0.5],[1,0.5]];portConstraint=eastwest;" vertex="1" parent="7miGtdqhwEmE9htYBtyr-38">
          <mxGeometry y="398" width="244" height="26" as="geometry" />
        </mxCell>
        <mxCell id="7miGtdqhwEmE9htYBtyr-55" value="RequestMessage" style="swimlane;fontStyle=1;align=center;verticalAlign=top;childLayout=stackLayout;horizontal=1;startSize=26;horizontalStack=0;resizeParent=1;resizeParentMax=0;resizeLast=0;collapsible=1;marginBottom=0;fillColor=none;" vertex="1" parent="1">
          <mxGeometry x="-2458" y="580" width="350" height="242" as="geometry" />
        </mxCell>
        <mxCell id="7miGtdqhwEmE9htYBtyr-56" value="- action: ActionRequest" style="text;strokeColor=none;fillColor=none;align=left;verticalAlign=top;spacingLeft=4;spacingRight=4;overflow=hidden;rotatable=0;points=[[0,0.5],[1,0.5]];portConstraint=eastwest;" vertex="1" parent="7miGtdqhwEmE9htYBtyr-55">
          <mxGeometry y="26" width="350" height="26" as="geometry" />
        </mxCell>
        <mxCell id="7miGtdqhwEmE9htYBtyr-57" value="" style="line;strokeWidth=1;fillColor=none;align=left;verticalAlign=middle;spacingTop=-1;spacingLeft=3;spacingRight=3;rotatable=0;labelPosition=right;points=[];portConstraint=eastwest;" vertex="1" parent="7miGtdqhwEmE9htYBtyr-55">
          <mxGeometry y="52" width="350" height="8" as="geometry" />
        </mxCell>
        <mxCell id="7miGtdqhwEmE9htYBtyr-58" value="+ RequestMessage(ActionRequest, String, List&lt;Entity&gt;)" style="text;strokeColor=none;fillColor=none;align=left;verticalAlign=top;spacingLeft=4;spacingRight=4;overflow=hidden;rotatable=0;points=[[0,0.5],[1,0.5]];portConstraint=eastwest;" vertex="1" parent="7miGtdqhwEmE9htYBtyr-55">
          <mxGeometry y="60" width="350" height="26" as="geometry" />
        </mxCell>
        <mxCell id="7miGtdqhwEmE9htYBtyr-59" value="+ RequestMessage(ActionRequest, String, Entity...)" style="text;strokeColor=none;fillColor=none;align=left;verticalAlign=top;spacingLeft=4;spacingRight=4;overflow=hidden;rotatable=0;points=[[0,0.5],[1,0.5]];portConstraint=eastwest;" vertex="1" parent="7miGtdqhwEmE9htYBtyr-55">
          <mxGeometry y="86" width="350" height="26" as="geometry" />
        </mxCell>
        <mxCell id="7miGtdqhwEmE9htYBtyr-60" value="+ RequestMessage(ActionRequest, List&lt;Entity&gt;)" style="text;strokeColor=none;fillColor=none;align=left;verticalAlign=top;spacingLeft=4;spacingRight=4;overflow=hidden;rotatable=0;points=[[0,0.5],[1,0.5]];portConstraint=eastwest;" vertex="1" parent="7miGtdqhwEmE9htYBtyr-55">
          <mxGeometry y="112" width="350" height="26" as="geometry" />
        </mxCell>
        <mxCell id="7miGtdqhwEmE9htYBtyr-61" value="+ RequestMesage(ActionRequest, Entity...)" style="text;strokeColor=none;fillColor=none;align=left;verticalAlign=top;spacingLeft=4;spacingRight=4;overflow=hidden;rotatable=0;points=[[0,0.5],[1,0.5]];portConstraint=eastwest;fontStyle=0" vertex="1" parent="7miGtdqhwEmE9htYBtyr-55">
          <mxGeometry y="138" width="350" height="26" as="geometry" />
        </mxCell>
        <mxCell id="7miGtdqhwEmE9htYBtyr-62" value="+ receive(DataInputStream): RequestMessage" style="text;strokeColor=none;fillColor=none;align=left;verticalAlign=top;spacingLeft=4;spacingRight=4;overflow=hidden;rotatable=0;points=[[0,0.5],[1,0.5]];portConstraint=eastwest;fontStyle=4" vertex="1" parent="7miGtdqhwEmE9htYBtyr-55">
          <mxGeometry y="164" width="350" height="26" as="geometry" />
        </mxCell>
        <mxCell id="7miGtdqhwEmE9htYBtyr-68" value="+ isValid(): boolean" style="text;strokeColor=none;fillColor=none;align=left;verticalAlign=top;spacingLeft=4;spacingRight=4;overflow=hidden;rotatable=0;points=[[0,0.5],[1,0.5]];portConstraint=eastwest;" vertex="1" parent="7miGtdqhwEmE9htYBtyr-55">
          <mxGeometry y="190" width="350" height="26" as="geometry" />
        </mxCell>
        <mxCell id="7miGtdqhwEmE9htYBtyr-70" value="+ getAction(): ActionRequest" style="text;strokeColor=none;fillColor=none;align=left;verticalAlign=top;spacingLeft=4;spacingRight=4;overflow=hidden;rotatable=0;points=[[0,0.5],[1,0.5]];portConstraint=eastwest;" vertex="1" parent="7miGtdqhwEmE9htYBtyr-55">
          <mxGeometry y="216" width="350" height="26" as="geometry" />
        </mxCell>
        <mxCell id="7miGtdqhwEmE9htYBtyr-72" value="ResponseMessage" style="swimlane;fontStyle=1;align=center;verticalAlign=top;childLayout=stackLayout;horizontal=1;startSize=26;horizontalStack=0;resizeParent=1;resizeParentMax=0;resizeLast=0;collapsible=1;marginBottom=0;fillColor=none;" vertex="1" parent="1">
          <mxGeometry x="-2071" y="620" width="330" height="320" as="geometry" />
        </mxCell>
        <mxCell id="7miGtdqhwEmE9htYBtyr-73" value="- success: boolean" style="text;strokeColor=none;fillColor=none;align=left;verticalAlign=top;spacingLeft=4;spacingRight=4;overflow=hidden;rotatable=0;points=[[0,0.5],[1,0.5]];portConstraint=eastwest;" vertex="1" parent="7miGtdqhwEmE9htYBtyr-72">
          <mxGeometry y="26" width="330" height="26" as="geometry" />
        </mxCell>
        <mxCell id="7miGtdqhwEmE9htYBtyr-74" value="- errorMsg: String" style="text;strokeColor=none;fillColor=none;align=left;verticalAlign=top;spacingLeft=4;spacingRight=4;overflow=hidden;rotatable=0;points=[[0,0.5],[1,0.5]];portConstraint=eastwest;" vertex="1" parent="7miGtdqhwEmE9htYBtyr-72">
          <mxGeometry y="52" width="330" height="26" as="geometry" />
        </mxCell>
        <mxCell id="7miGtdqhwEmE9htYBtyr-75" value="" style="line;strokeWidth=1;fillColor=none;align=left;verticalAlign=middle;spacingTop=-1;spacingLeft=3;spacingRight=3;rotatable=0;labelPosition=right;points=[];portConstraint=eastwest;" vertex="1" parent="7miGtdqhwEmE9htYBtyr-72">
          <mxGeometry y="78" width="330" height="8" as="geometry" />
        </mxCell>
        <mxCell id="7miGtdqhwEmE9htYBtyr-76" value="+ ResponseMessage(String)" style="text;strokeColor=none;fillColor=none;align=left;verticalAlign=top;spacingLeft=4;spacingRight=4;overflow=hidden;rotatable=0;points=[[0,0.5],[1,0.5]];portConstraint=eastwest;" vertex="1" parent="7miGtdqhwEmE9htYBtyr-72">
          <mxGeometry y="86" width="330" height="26" as="geometry" />
        </mxCell>
        <mxCell id="7miGtdqhwEmE9htYBtyr-77" value="+ ResponseMessage(List&lt;Entity&gt;)" style="text;strokeColor=none;fillColor=none;align=left;verticalAlign=top;spacingLeft=4;spacingRight=4;overflow=hidden;rotatable=0;points=[[0,0.5],[1,0.5]];portConstraint=eastwest;" vertex="1" parent="7miGtdqhwEmE9htYBtyr-72">
          <mxGeometry y="112" width="330" height="26" as="geometry" />
        </mxCell>
        <mxCell id="7miGtdqhwEmE9htYBtyr-78" value="+ ResponseMessage(Entity...)" style="text;strokeColor=none;fillColor=none;align=left;verticalAlign=top;spacingLeft=4;spacingRight=4;overflow=hidden;rotatable=0;points=[[0,0.5],[1,0.5]];portConstraint=eastwest;" vertex="1" parent="7miGtdqhwEmE9htYBtyr-72">
          <mxGeometry y="138" width="330" height="26" as="geometry" />
        </mxCell>
        <mxCell id="7miGtdqhwEmE9htYBtyr-79" value="# ResponseMessage(boolean, String, List&lt;Entity&gt;)" style="text;strokeColor=none;fillColor=none;align=left;verticalAlign=top;spacingLeft=4;spacingRight=4;overflow=hidden;rotatable=0;points=[[0,0.5],[1,0.5]];portConstraint=eastwest;fontStyle=0" vertex="1" parent="7miGtdqhwEmE9htYBtyr-72">
          <mxGeometry y="164" width="330" height="26" as="geometry" />
        </mxCell>
        <mxCell id="7miGtdqhwEmE9htYBtyr-80" value="# ResponseMessage(boolean, String, Entity...)" style="text;strokeColor=none;fillColor=none;align=left;verticalAlign=top;spacingLeft=4;spacingRight=4;overflow=hidden;rotatable=0;points=[[0,0.5],[1,0.5]];portConstraint=eastwest;" vertex="1" parent="7miGtdqhwEmE9htYBtyr-72">
          <mxGeometry y="190" width="330" height="26" as="geometry" />
        </mxCell>
        <mxCell id="7miGtdqhwEmE9htYBtyr-81" value="+ receive(DataInputStream): ResponseMessage" style="text;strokeColor=none;fillColor=none;align=left;verticalAlign=top;spacingLeft=4;spacingRight=4;overflow=hidden;rotatable=0;points=[[0,0.5],[1,0.5]];portConstraint=eastwest;fontStyle=4" vertex="1" parent="7miGtdqhwEmE9htYBtyr-72">
          <mxGeometry y="216" width="330" height="26" as="geometry" />
        </mxCell>
        <mxCell id="7miGtdqhwEmE9htYBtyr-82" value="+ isValid(ActionRequest): boolean" style="text;strokeColor=none;fillColor=none;align=left;verticalAlign=top;spacingLeft=4;spacingRight=4;overflow=hidden;rotatable=0;points=[[0,0.5],[1,0.5]];portConstraint=eastwest;" vertex="1" parent="7miGtdqhwEmE9htYBtyr-72">
          <mxGeometry y="242" width="330" height="26" as="geometry" />
        </mxCell>
        <mxCell id="7miGtdqhwEmE9htYBtyr-83" value="+ isSuccess(): boolean" style="text;strokeColor=none;fillColor=none;align=left;verticalAlign=top;spacingLeft=4;spacingRight=4;overflow=hidden;rotatable=0;points=[[0,0.5],[1,0.5]];portConstraint=eastwest;" vertex="1" parent="7miGtdqhwEmE9htYBtyr-72">
          <mxGeometry y="268" width="330" height="26" as="geometry" />
        </mxCell>
        <mxCell id="7miGtdqhwEmE9htYBtyr-84" value="+ getErrorMsg(): String" style="text;strokeColor=none;fillColor=none;align=left;verticalAlign=top;spacingLeft=4;spacingRight=4;overflow=hidden;rotatable=0;points=[[0,0.5],[1,0.5]];portConstraint=eastwest;" vertex="1" parent="7miGtdqhwEmE9htYBtyr-72">
          <mxGeometry y="294" width="330" height="26" as="geometry" />
        </mxCell>
        <mxCell id="7miGtdqhwEmE9htYBtyr-85" value="&lt;i&gt;&lt;span style=&quot;font-weight: normal&quot;&gt;&amp;lt;&amp;lt;enumeration&amp;gt;&amp;gt;&lt;/span&gt;&lt;/i&gt;&lt;br&gt;ActionRequest" style="swimlane;fontStyle=1;align=center;verticalAlign=top;childLayout=stackLayout;horizontal=1;startSize=43;horizontalStack=0;resizeParent=1;resizeParentMax=0;resizeLast=0;collapsible=1;marginBottom=0;html=1;fillColor=none;" vertex="1" parent="1">
          <mxGeometry x="-2341" y="310" width="240" height="95" as="geometry" />
        </mxCell>
        <mxCell id="7miGtdqhwEmE9htYBtyr-86" value="... constants ..." style="text;strokeColor=none;fillColor=none;align=left;verticalAlign=top;spacingLeft=4;spacingRight=4;overflow=hidden;rotatable=0;points=[[0,0.5],[1,0.5]];portConstraint=eastwest;fontStyle=2" vertex="1" parent="7miGtdqhwEmE9htYBtyr-85">
          <mxGeometry y="43" width="240" height="26" as="geometry" />
        </mxCell>
        <mxCell id="7miGtdqhwEmE9htYBtyr-87" value="+ toCamelCaseString(): String" style="text;strokeColor=none;fillColor=none;align=left;verticalAlign=top;spacingLeft=4;spacingRight=4;overflow=hidden;rotatable=0;points=[[0,0.5],[1,0.5]];portConstraint=eastwest;" vertex="1" parent="7miGtdqhwEmE9htYBtyr-85">
          <mxGeometry y="69" width="240" height="26" as="geometry" />
        </mxCell>
        <mxCell id="7miGtdqhwEmE9htYBtyr-94" style="edgeStyle=orthogonalEdgeStyle;rounded=0;orthogonalLoop=1;jettySize=auto;html=1;endArrow=block;endFill=0;" edge="1" parent="1" source="7miGtdqhwEmE9htYBtyr-91" target="7miGtdqhwEmE9htYBtyr-8">
          <mxGeometry relative="1" as="geometry">
            <Array as="points">
              <mxPoint x="-831" y="350" />
              <mxPoint x="-1016" y="350" />
            </Array>
          </mxGeometry>
        </mxCell>
        <mxCell id="7miGtdqhwEmE9htYBtyr-91" value="Recommend&lt;br&gt;UserInfo" style="html=1;fillColor=none;fontStyle=1" vertex="1" parent="1">
          <mxGeometry x="-891" y="390" width="120" height="50" as="geometry" />
        </mxCell>
        <mxCell id="7miGtdqhwEmE9htYBtyr-93" style="edgeStyle=orthogonalEdgeStyle;rounded=0;orthogonalLoop=1;jettySize=auto;html=1;endArrow=block;endFill=0;" edge="1" parent="1" source="7miGtdqhwEmE9htYBtyr-92" target="7miGtdqhwEmE9htYBtyr-8">
          <mxGeometry relative="1" as="geometry">
            <Array as="points">
              <mxPoint x="-961" y="350" />
              <mxPoint x="-1016" y="350" />
            </Array>
          </mxGeometry>
        </mxCell>
        <mxCell id="7miGtdqhwEmE9htYBtyr-104" value="&amp;lt;&amp;lt;use&amp;gt;&amp;gt;" style="edgeStyle=none;rounded=0;orthogonalLoop=1;jettySize=auto;html=1;dashed=1;labelBackgroundColor=none;endArrow=block;endFill=0;" edge="1" parent="1" source="7miGtdqhwEmE9htYBtyr-92" target="7miGtdqhwEmE9htYBtyr-100">
          <mxGeometry relative="1" as="geometry" />
        </mxCell>
        <mxCell id="7miGtdqhwEmE9htYBtyr-92" value="Recommend&lt;br&gt;RestaurantInfo" style="html=1;fillColor=none;fontStyle=1" vertex="1" parent="1">
          <mxGeometry x="-1021" y="390" width="120" height="50" as="geometry" />
        </mxCell>
        <mxCell id="7miGtdqhwEmE9htYBtyr-88" value="&lt;i&gt;&lt;span style=&quot;font-weight: normal&quot;&gt;&amp;lt;&amp;lt;enumeration&amp;gt;&amp;gt;&lt;/span&gt;&lt;/i&gt;&lt;br&gt;Price" style="swimlane;fontStyle=1;align=center;verticalAlign=top;childLayout=stackLayout;horizontal=1;startSize=43;horizontalStack=0;resizeParent=1;resizeParentMax=0;resizeLast=0;collapsible=1;marginBottom=0;html=1;fillColor=none;" vertex="1" parent="1">
          <mxGeometry x="-1211" y="550" width="310" height="121" as="geometry" />
        </mxCell>
        <mxCell id="7miGtdqhwEmE9htYBtyr-89" value="ECONOMIC, LOW, MIDDLE, HIGH, LUXURY" style="text;strokeColor=none;fillColor=none;align=left;verticalAlign=top;spacingLeft=4;spacingRight=4;overflow=hidden;rotatable=0;points=[[0,0.5],[1,0.5]];portConstraint=eastwest;fontStyle=0" vertex="1" parent="7miGtdqhwEmE9htYBtyr-88">
          <mxGeometry y="43" width="310" height="26" as="geometry" />
        </mxCell>
        <mxCell id="7miGtdqhwEmE9htYBtyr-99" value="+ toString(): String" style="text;strokeColor=none;fillColor=none;align=left;verticalAlign=top;spacingLeft=4;spacingRight=4;overflow=hidden;rotatable=0;points=[[0,0.5],[1,0.5]];portConstraint=eastwest;fontStyle=0" vertex="1" parent="7miGtdqhwEmE9htYBtyr-88">
          <mxGeometry y="69" width="310" height="26" as="geometry" />
        </mxCell>
        <mxCell id="7miGtdqhwEmE9htYBtyr-90" value="+ getLowerValues(): List&lt;Price&gt;" style="text;strokeColor=none;fillColor=none;align=left;verticalAlign=top;spacingLeft=4;spacingRight=4;overflow=hidden;rotatable=0;points=[[0,0.5],[1,0.5]];portConstraint=eastwest;fontStyle=0" vertex="1" parent="7miGtdqhwEmE9htYBtyr-88">
          <mxGeometry y="95" width="310" height="26" as="geometry" />
        </mxCell>
        <mxCell id="7miGtdqhwEmE9htYBtyr-100" value="&lt;i&gt;&lt;span style=&quot;font-weight: normal&quot;&gt;&amp;lt;&amp;lt;enumeration&amp;gt;&amp;gt;&lt;/span&gt;&lt;/i&gt;&lt;br&gt;LikesFrom" style="swimlane;fontStyle=1;align=center;verticalAlign=top;childLayout=stackLayout;horizontal=1;startSize=43;horizontalStack=0;resizeParent=1;resizeParentMax=0;resizeLast=0;collapsible=1;marginBottom=0;html=1;fillColor=none;" vertex="1" parent="1">
          <mxGeometry x="-880" y="550" width="310" height="95" as="geometry" />
        </mxCell>
        <mxCell id="7miGtdqhwEmE9htYBtyr-101" value="FRIENDS, FRIENDS_OF_FRIENDS" style="text;strokeColor=none;fillColor=none;align=left;verticalAlign=top;spacingLeft=4;spacingRight=4;overflow=hidden;rotatable=0;points=[[0,0.5],[1,0.5]];portConstraint=eastwest;fontStyle=0" vertex="1" parent="7miGtdqhwEmE9htYBtyr-100">
          <mxGeometry y="43" width="310" height="26" as="geometry" />
        </mxCell>
        <mxCell id="7miGtdqhwEmE9htYBtyr-102" value="+ toString(): String" style="text;strokeColor=none;fillColor=none;align=left;verticalAlign=top;spacingLeft=4;spacingRight=4;overflow=hidden;rotatable=0;points=[[0,0.5],[1,0.5]];portConstraint=eastwest;fontStyle=0" vertex="1" parent="7miGtdqhwEmE9htYBtyr-100">
          <mxGeometry y="69" width="310" height="26" as="geometry" />
        </mxCell>
      </root>
    </mxGraphModel>
  </diagram>
</mxfile>
